<svg id="Layer_1" data-name="Layer 1" xmlns="http://www.w3.org/2000/svg" viewBox="0 0 1280 1025.86"><defs><style>.cls-1{fill:#12100b;}.cls-2{fill:#d7994f;}.cls-3{fill:#796053;}.cls-4{fill:#9c8e46;}.cls-5{fill:#785e52;}.cls-6{fill:#9c8e49;}.cls-7{fill:#9d914f;}.cls-8{fill:#cfac85;}.cls-9{fill:#a0924d;}.cls-10{fill:#775d51;}.cls-11{fill:#524e4c;}</style></defs><path class="cls-1" d="M381.7,1025.86a7.28,7.28,0,0,1-7.28-7.28V589.68c0-16.77-9.95-37.59-17-52.17s-16.12-28.37-27.77-39.68c-37.53-36.44-96.51-41-145.68-41-19.72,0-75.95,7.76-83.6-18.48,1,3.56,17.3,6.06,20,6.56,42.53,7.84,91.85-17.79,133.54,2.34,0,0-23.74-54.15-29.67-67.51s-20.77-44.5-41.54-54.15-57.86-26.7-63-59.34c-1.06-6.63.26-15.31,4.09-20.79,3.47,21.74,11,34.39,29.29,47.49a312.94,312.94,0,0,0,32.64,20s34.12,21.51,45.25,46.74l15.57,31.89c13.47-20.2,21.75-40.27,14.11-64.15-4.72-14.75-14.28-25.43-29.25-30-16.37-5-35.83-3.33-49.3-15.59-5.71-5.22-11.73-14.14-12.77-21.68,8.73,7.5,17.29,13.88,28.75,17.65,16.12,5.31,35.28,3.68,49.95,12.85,20,12.48,29.14,36.08,24.11,58.83-3.78,17.11-22.06,40.49-16.69,58.37,4.45,14.84,7.41,35.61,28.18,45.25s50.45,34.87,63.06,47.48S374.05,540,374.8,543s0-104.59,0-104.59-36.35-51.19-30.42-69.73c0,0,26.71,42.28,30.42,46V323.38s-40.8-43.77-85.31-69c-42.07-23.84-77.92-63.63-75-114.86.51-8.78,3.05-18.78,11-22.55-7,3.31.19,38.84,1.71,44.57a105.71,105.71,0,0,0,21.18,40.87c21.18,25.15,51.72,38.36,77.56,57.71,10.61,7.95,20.54,16.77,30.46,25.55,2.89,2.55,18.58,13.24,18.58,17.48V205.25s-33.38-32.83-31.71-51.19c0,0,20.58,32.27,31.71,33.38,0,0,2.23-52.85,0-64.53S356.62,84,360,80.07s28.93,28.93,30.6,51.74,0,130.74,0,130.74,35.61-54.52,47.85-71.77,29.48-45.06,35-55.64,10-26.7,12.23-29.48c0,0-.55,35.6-11.12,54s-14.47,25-14.47,25,35.61,3.89,52.86-7.23c0,0-5.57,11.68-33.39,14.46l-27.81,2.78S397.24,262,395.57,290.92s0,123.51,0,123.51,10-42.28,32.82-69,53.41-51.74,68.43-61.2,31.16-20,49.52-45.07,25-38.94,28.37-64l5-1.11s3.89,31.71-17.25,60.09c0,0-35.61,45.62-55.63,56.74,0,0,31.15,9.46,55.63-2.78a246.2,246.2,0,0,0,33.44-19.57c10.4-7.44,17.86-17.37,27.13-25.48-2.08,7.12-6,14-10.22,20.1s-19.43,27.24-27.54,26.62c0,0,62.87,4.45,61.76-14.46,0,0,1.11,27.81-51.19,27.26,0,0-85.68-3.9-97.92,3.33s-35,19.48-37.83,27.82c-.46,1.39,18.14,4.2,19.21,4.26,20.56,1.12,34-9.33,50.89-18.72,0,0-2.78,21.14-31.15,24.48a110.91,110.91,0,0,1-49,1.11s-32.83,33.94-41.73,70.1-9.46,58.42-12.24,90.68-2.78,55.64-2.78,55.64A221.46,221.46,0,0,1,410.89,524c23.74-41,72.42-77.75,119.31-86.21,47.1-8.49,94.91-10.13,142.65-9.17-15.29,25.74-62.57,10.58-86.27,12.17A262.4,262.4,0,0,0,521,453.63c-28.18,9.41-58.12,23.18-76.15,47.77-21.24,29-40.52,59-44.27,95.52-4.08,39.84-.67,368.13-.08,421.6a7.26,7.26,0,0,1-7.28,7.34Z"/><path class="cls-2" d="M18.36,414.25s41.17-36.72,89.39-4.82C107.75,409.43,76.22,451.34,18.36,414.25Z"/><path class="cls-3" d="M0,338.13s49.46-24.43,87.44,19.16C87.44,357.29,45.89,389.29,0,338.13Z"/><path class="cls-4" d="M4.22,282.76s51.61-19.48,85.15,27.61C89.37,310.37,44.89,338.16,4.22,282.76Z"/><path class="cls-5" d="M35.38,214s55,3.78,65.93,60.55C101.31,274.56,49.3,281.31,35.38,214Z"/><path class="cls-6" d="M79,138.89s46.29,30,28.26,84.94C107.24,223.83,58.49,204.5,79,138.89Z"/><path class="cls-5" d="M136.35,191.84s55.17.54,69.37,56.58C205.72,248.42,154.19,258.21,136.35,191.84Z"/><path class="cls-7" d="M232.87,226.42S268.59,243.31,261,284C261,284,224.57,275,232.87,226.42Z"/><path class="cls-4" d="M122,106.65s54.7,7.12,62.12,64.45C184.15,171.1,131.83,174.68,122,106.65Z"/><path class="cls-2" d="M82.61,332s41.55-25.83,78.83,9.36C161.44,341.37,127.53,373.2,82.61,332Z"/><path class="cls-8" d="M119.27,389.29s40.29-37.69,89.25-7C208.52,382.34,178,425,119.27,389.29Z"/><path class="cls-9" d="M311.62,373.91s32.39,35.76,4.82,78.15C316.44,452.06,279.57,424.77,311.62,373.91Z"/><path class="cls-9" d="M285.18,290.54s47.24,9.86,49.88,60.36C335.06,350.9,289.19,350.52,285.18,290.54Z"/><path class="cls-9" d="M314.06,174.51s41.67,24.33,28.16,73.06C342.22,247.57,298.84,232.66,314.06,174.51Z"/><path class="cls-6" d="M470.62,226.64s10.77,50-37,74.31C433.59,301,414.21,256.34,470.62,226.64Z"/><path class="cls-5" d="M264.36,101.07s38.5,29.09,19.32,75.88C283.68,177,242.36,157,264.36,101.07Z"/><path class="cls-7" d="M294.39,58.57s44.53,18.58,37.6,68.68C332,127.25,287,118.23,294.39,58.57Z"/><path class="cls-8" d="M3,487.19S28,438,84.5,450.28C84.5,450.28,70.32,500.77,3,487.19Z"/><path class="cls-8" d="M82.32,501.66s25.05-49.15,81.55-36.92C163.87,464.74,149.69,515.24,82.32,501.66Z"/><path class="cls-9" d="M169.84,525.24s31.06-45.59,85.56-26.31C255.4,498.93,235,547.23,169.84,525.24Z"/><path class="cls-6" d="M266.49,20S216.42,24.8,229,85.63C229,85.63,271.69,80.07,266.49,20Z"/><path class="cls-3" d="M188.08,40.94s-41.81,28-1,77.62C187.09,118.56,222,93.37,188.08,40.94Z"/><path class="cls-10" d="M309.5,0s-22.12,45.2,38.08,67.65C347.58,67.65,365.14,28.36,309.5,0Z"/><path class="cls-2" d="M414.14,3.23s-47,17.88-18.43,75.41C395.71,78.64,435.38,62,414.14,3.23Z"/><path class="cls-7" d="M435.55,75s-41.38,28.63.17,77.63C435.72,152.64,470.24,126.93,435.55,75Z"/><path class="cls-8" d="M460.15,14S428.69,53.25,482.54,88.3C482.54,88.3,508.25,53.79,460.15,14Z"/><path class="cls-7" d="M540.6,32.28s-49.52,8.93-32,70.74C508.63,103,550.7,93.91,540.6,32.28Z"/><path class="cls-8" d="M553.22,96.82s-49.53,8.93-32,70.74C521.24,167.56,563.31,158.44,553.22,96.82Z"/><path class="cls-3" d="M542.17,196.12s-49.15-10.79-56.71,53C485.46,249.14,527.79,256.89,542.17,196.12Z"/><path class="cls-8" d="M655.18,153s-50.2-3.42-48.27,60.8C606.91,213.83,649.93,215.26,655.18,153Z"/><path class="cls-8" d="M695.61,193.9s-50.2-3.42-48.27,60.8C647.34,254.7,690.35,256.13,695.61,193.9Z"/><path class="cls-2" d="M725.5,261.67s-44.85-22.82-68.24,37C657.26,298.7,696.28,316.87,725.5,261.67Z"/><path class="cls-5" d="M628.38,327.32s-43-38.24-86.21,21.19C542.17,348.51,580.07,379.91,628.38,327.32Z"/><path class="cls-5" d="M672.58,376.05s-34.38-46.14-88.71,3.32C583.87,379.37,614.64,417.79,672.58,376.05Z"/><path class="cls-4" d="M731.42,336.18s-25.73-43.45-77.73-5.33C653.69,330.85,677,367.23,731.42,336.18Z"/><path class="cls-2" d="M747.89,384.06s-43.44-25.76-70.74,32.65C677.15,416.71,715.05,437.43,747.89,384.06Z"/><path class="cls-4" d="M563.41,413.8s1-50.49-63.25-45.48C500.16,368.32,500.78,411.51,563.41,413.8Z"/><path class="cls-2" d="M470.05,378.35s-49.68,9.07-31.94,71C438.11,449.4,480.31,440.17,470.05,378.35Z"/><path class="cls-5" d="M732.12,483.11s-12.33-49-73-27.18C659.11,455.93,671.1,497.42,732.12,483.11Z"/><path class="cls-3" d="M599.18,83.32s-42.83,26.41-3.91,77.54C595.27,160.86,631.09,137,599.18,83.32Z"/><path class="cls-11" d="M520.33,933.51q2.14-7.53,3-11.3c.54-2.5,1.16-6.8,1.89-12.91s1.16-14.7,1.34-25.82.27-18.65.27-22.6V595.1a203.67,203.67,0,0,0-6.46-49.49h96.85L651.07,544q57,0,87.7,25.83t30.66,74.24q0,50.58-36.31,84.2T643,761.89a146.35,146.35,0,0,1-23.67-1.62,87.09,87.09,0,0,1-21.52-7h5.92q46.26,0,75-29.32t28.78-76.13q0-23.67-7-39.28-8.61-22-28.79-31.2t-60.52-9.15h-22.6V884.55a199.06,199.06,0,0,0,1.17,24.21,205.62,205.62,0,0,0,5.29,24.75Z"/><path class="cls-11" d="M803.32,933.51a190.08,190.08,0,0,0,8.07-56V595.64a201.87,201.87,0,0,0-6.45-50h215.2l6.46,37.12-8.07-1.61q-52.74-11.31-76.94-11.3H873.27V723.15h51.64a199.16,199.16,0,0,0,67.26-11.3V759.2q-12.87-4.31-34.81-8.07t-32.14-3.77h-52v128q0,33.89,5.91,58.1Z"/><path class="cls-11" d="M1054,933.51q7-25.28,7-58.1V577.35c0-9.32-.2-15.07-.6-17.22q-3-8.6-4.78-14.52h72.63q-5.38,22.07-5.38,51.65V905.54h65.64q45.2,0,91.46-16.14l-18.29,44.11Z"/><path class="cls-5" d="M550.65,965v5.78H527v18.62h18.7v5.71H527v24.79h-7.21V965Z"/><path class="cls-5" d="M561.74,961.06a4.66,4.66,0,0,1,3.41-1.43,4.92,4.92,0,1,1,0,9.83A4.61,4.61,0,0,1,561.7,968a4.82,4.82,0,0,1-1.39-3.48A4.75,4.75,0,0,1,561.74,961.06Zm7,15.37v43.49H561.5V976.43Z"/><path class="cls-5" d="M613.43,977.82a15.14,15.14,0,0,1,6.1,6.25,20.88,20.88,0,0,1,2.26,10.1v25.75h-7.13V995.36q0-6.57-3.17-10T602.7,982a11.46,11.46,0,0,0-8.76,3.41q-3.2,3.4-3.2,10v24.56h-7.21V976.43h7.21v7.05a14.3,14.3,0,0,1,5.86-5.78,18.3,18.3,0,0,1,16.83.12Z"/><path class="cls-5" d="M663.82,978.33a17.22,17.22,0,0,1,6.3,6.81v-8.71h7.28v43.49h-7.28v-8.87a17.34,17.34,0,0,1-6.3,6.93,17.67,17.67,0,0,1-9.71,2.65,19.77,19.77,0,0,1-10.57-2.89,20.29,20.29,0,0,1-7.45-8.08,24.88,24.88,0,0,1-2.73-11.76,24,24,0,0,1,2.73-11.61,19.78,19.78,0,0,1,7.45-7.8,20.42,20.42,0,0,1,10.57-2.78A17.91,17.91,0,0,1,663.82,978.33Zm-15.69,5.54a14.15,14.15,0,0,0-5.39,5.51,17.23,17.23,0,0,0-2,8.52,18.1,18.1,0,0,0,2,8.67,15.05,15.05,0,0,0,5.39,5.83,13.69,13.69,0,0,0,7.25,2.06,14.14,14.14,0,0,0,7.33-2,14.43,14.43,0,0,0,5.39-5.66,19.3,19.3,0,0,0,0-17.19,14.59,14.59,0,0,0-5.39-5.67,14.32,14.32,0,0,0-7.33-2A14.59,14.59,0,0,0,648.13,983.87Z"/><path class="cls-5" d="M722.12,977.82a15.08,15.08,0,0,1,6.1,6.25,20.88,20.88,0,0,1,2.26,10.1v25.75h-7.13V995.36q0-6.57-3.17-10T711.39,982a11.46,11.46,0,0,0-8.76,3.41q-3.2,3.4-3.2,10v24.56h-7.21V976.43h7.21v7.05a14.3,14.3,0,0,1,5.86-5.78,18.3,18.3,0,0,1,16.83.12Z"/><path class="cls-5" d="M775.91,979.36a19.12,19.12,0,0,1,6.94,10.38h-7.77a11.28,11.28,0,0,0-4.35-5.94,13,13,0,0,0-7.61-2.14,12.54,12.54,0,0,0-9.94,4.32q-3.76,4.31-3.76,12.23t3.76,12.16a12.54,12.54,0,0,0,9.94,4.32,13.15,13.15,0,0,0,7.61-2.06,11.53,11.53,0,0,0,4.35-6h7.77a19.71,19.71,0,0,1-7,10.22q-5,3.81-12.72,3.8a21.3,21.3,0,0,1-10.89-2.77,19.24,19.24,0,0,1-7.49-7.88,27.25,27.25,0,0,1,0-23.61,19.35,19.35,0,0,1,7.45-7.88,21.28,21.28,0,0,1,10.93-2.78Q771,975.71,775.91,979.36Z"/><path class="cls-5" d="M795.6,961.06a4.66,4.66,0,0,1,3.41-1.43,4.92,4.92,0,1,1,0,9.83,4.61,4.61,0,0,1-3.45-1.43,4.82,4.82,0,0,1-1.39-3.48A4.75,4.75,0,0,1,795.6,961.06Zm7,15.37v43.49h-7.21V976.43Z"/><path class="cls-5" d="M845,978.33a17.13,17.13,0,0,1,6.29,6.81v-8.71h7.29v43.49h-7.29v-8.87A17.24,17.24,0,0,1,845,1018a17.67,17.67,0,0,1-9.71,2.65,19.83,19.83,0,0,1-10.58-2.89,20.34,20.34,0,0,1-7.44-8.08,24.76,24.76,0,0,1-2.74-11.76,23.86,23.86,0,0,1,2.74-11.61,19.83,19.83,0,0,1,7.44-7.8,20.49,20.49,0,0,1,10.58-2.78A17.91,17.91,0,0,1,845,978.33Zm-15.69,5.54a14.08,14.08,0,0,0-5.39,5.51,17.23,17.23,0,0,0-2,8.52,18.1,18.1,0,0,0,2,8.67,15,15,0,0,0,5.39,5.83,13.66,13.66,0,0,0,7.25,2.06,14.14,14.14,0,0,0,7.33-2,14.34,14.34,0,0,0,5.38-5.66,19.3,19.3,0,0,0,0-17.19,14.5,14.5,0,0,0-5.38-5.67,14.32,14.32,0,0,0-7.33-2A14.56,14.56,0,0,0,829.31,983.87Z"/><path class="cls-5" d="M880.6,961.3v58.62h-7.2V961.3Z"/><path class="cls-5" d="M955.7,1007.88H931.3l-4.27,12h-7.37l20-54.9h7.92l19.89,54.9H960Zm-2.06-5.7L943.5,973.81l-10.14,28.37Z"/><path class="cls-5" d="M1007.4,978.33a17.13,17.13,0,0,1,6.29,6.81V961.3H1021v58.62h-7.29v-8.87a17.24,17.24,0,0,1-6.29,6.93,17.67,17.67,0,0,1-9.71,2.65,19.77,19.77,0,0,1-10.57-2.89,20.29,20.29,0,0,1-7.45-8.08,24.88,24.88,0,0,1-2.74-11.76,24,24,0,0,1,2.74-11.61,19.78,19.78,0,0,1,7.45-7.8,20.42,20.42,0,0,1,10.57-2.78A17.91,17.91,0,0,1,1007.4,978.33Zm-15.69,5.54a14.15,14.15,0,0,0-5.39,5.51,17.23,17.23,0,0,0-2,8.52,18.1,18.1,0,0,0,2,8.67,15.05,15.05,0,0,0,5.39,5.83,13.69,13.69,0,0,0,7.25,2.06,14.14,14.14,0,0,0,7.33-2,14.34,14.34,0,0,0,5.38-5.66,19.3,19.3,0,0,0,0-17.19,14.5,14.5,0,0,0-5.38-5.67,14.32,14.32,0,0,0-7.33-2A14.59,14.59,0,0,0,991.71,983.87Z"/><path class="cls-5" d="M1051.8,1013.19l13.39-36.76H1073l-17,43.49h-8.16l-17-43.49h7.68Z"/><path class="cls-5" d="M1083,961.06a4.66,4.66,0,0,1,3.41-1.43,4.92,4.92,0,1,1,0,9.83A4.64,4.64,0,0,1,1083,968a4.81,4.81,0,0,1-1.38-3.48A4.74,4.74,0,0,1,1083,961.06Zm7,15.37v43.49h-7.2V976.43Z"/><path class="cls-5" d="M1130.94,979.4a14.11,14.11,0,0,1,4.52,10.1H1128a8.32,8.32,0,0,0-2.45-5.86,8.76,8.76,0,0,0-6.34-2.22,9.84,9.84,0,0,0-6.46,1.94,6.07,6.07,0,0,0-2.34,4.87,5.27,5.27,0,0,0,1.47,3.92,9,9,0,0,0,3.64,2.18,59.17,59.17,0,0,0,5.91,1.51,65.34,65.34,0,0,1,7.64,2.18,11.49,11.49,0,0,1,5,3.56,10.3,10.3,0,0,1,2.06,6.78,10.46,10.46,0,0,1-2.06,6.37,13.2,13.2,0,0,1-5.78,4.36,22.19,22.19,0,0,1-8.56,1.54q-7.29,0-11.68-3.64a13.49,13.49,0,0,1-4.79-10.06h7.44a8,8,0,0,0,2.58,5.82,9.28,9.28,0,0,0,6.45,2.18,11.27,11.27,0,0,0,6.86-1.82,5.76,5.76,0,0,0,2.41-4.83,5.34,5.34,0,0,0-1.46-3.93,9.59,9.59,0,0,0-3.69-2.22,62.92,62.92,0,0,0-6.1-1.62,56.87,56.87,0,0,1-7.56-2.1,12,12,0,0,1-4.92-3.36,9.33,9.33,0,0,1-2-6.34,11.42,11.42,0,0,1,2-6.54,13.81,13.81,0,0,1,5.79-4.71,20.64,20.64,0,0,1,8.75-1.75Q1126.82,975.71,1130.94,979.4Z"/><path class="cls-5" d="M1179.66,978.49a20.17,20.17,0,0,1,7.89,7.92,23.77,23.77,0,0,1,2.89,11.8,22.66,22.66,0,0,1-3,11.69,21,21,0,0,1-8.16,7.92,23.38,23.38,0,0,1-11.41,2.81,21.73,21.73,0,0,1-11-2.77,19.33,19.33,0,0,1-7.61-7.88,24.61,24.61,0,0,1-2.73-11.77,23.63,23.63,0,0,1,2.89-11.84,20.24,20.24,0,0,1,7.88-7.88,23.83,23.83,0,0,1,22.34,0Zm-18.61,5.07a13.56,13.56,0,0,0-5.19,5.62,19.3,19.3,0,0,0-1.94,9,19.89,19.89,0,0,0,1.86,9,13,13,0,0,0,12.08,7.52,14.72,14.72,0,0,0,13-7.6,17.51,17.51,0,0,0,2.14-8.88,18.74,18.74,0,0,0-2-9,13.79,13.79,0,0,0-5.39-5.66,14.6,14.6,0,0,0-7.33-1.9A13.94,13.94,0,0,0,1161.05,983.56Z"/><path class="cls-5" d="M1222.84,975.71v7.53h-1.9c-3.7,0-6.51,1-8.44,2.89s-2.89,5.27-2.89,10v23.77h-7.21V976.43h7.21v7.37Q1213.48,975.71,1222.84,975.71Z"/><path class="cls-5" d="M1260.63,979.4a14.1,14.1,0,0,1,4.51,10.1h-7.45a8.28,8.28,0,0,0-2.45-5.86,8.75,8.75,0,0,0-6.34-2.22,9.84,9.84,0,0,0-6.46,1.94,6.09,6.09,0,0,0-2.33,4.87,5.27,5.27,0,0,0,1.46,3.92,8.93,8.93,0,0,0,3.65,2.18,58.86,58.86,0,0,0,5.9,1.51,64.21,64.21,0,0,1,7.64,2.18,11.49,11.49,0,0,1,5,3.56,10.3,10.3,0,0,1,2.06,6.78,10.46,10.46,0,0,1-2.06,6.37,13.2,13.2,0,0,1-5.78,4.36,22.14,22.14,0,0,1-8.55,1.54q-7.29,0-11.69-3.64a13.49,13.49,0,0,1-4.79-10.06h7.44a8,8,0,0,0,2.58,5.82,9.29,9.29,0,0,0,6.46,2.18,11.23,11.23,0,0,0,6.85-1.82,5.77,5.77,0,0,0,2.42-4.83,5.31,5.31,0,0,0-1.47-3.93,9.59,9.59,0,0,0-3.69-2.22,62.14,62.14,0,0,0-6.1-1.62,57.31,57.31,0,0,1-7.56-2.1,11.94,11.94,0,0,1-4.91-3.36,9.28,9.28,0,0,1-2-6.34,11.36,11.36,0,0,1,2-6.54,13.78,13.78,0,0,1,5.78-4.71,20.67,20.67,0,0,1,8.75-1.75Q1256.52,975.71,1260.63,979.4Z"/></svg>